<?xml version="1.0" ?><!DOCTYPE svg  PUBLIC '-//W3C//DTD SVG 1.1//EN'  'http://www.w3.org/Graphics/SVG/1.1/DTD/svg11.dtd'><svg height="64px" id="Layer_1" style="enable-background:new 0 0 64 64;" version="1.1" viewBox="0 0 64 64" width="64px" xml:space="preserve" xmlns="http://www.w3.org/2000/svg" xmlns:xlink="http://www.w3.org/1999/xlink"><g><defs><rect height="64" id="SVGID_1_" width="64"/></defs><clipPath id="SVGID_2_"><use style="overflow:visible;" xlink:href="#SVGID_1_"/></clipPath><g style="clip-path:url(#SVGID_2_);"><defs><rect height="64" id="SVGID_3_" width="64"/></defs><clipPath id="SVGID_4_"><use style="overflow:visible;" xlink:href="#SVGID_3_"/></clipPath><path d="M41.205,16.87c-2.707,0-6.896,1.501-9.205,2.72    c-2.309-1.219-6.496-2.72-9.205-2.72c-10.067,0-15.705,9.147-14.674,19.588c0.945,9.61,8.682,16.854,17.348,16.854h13.064    c8.666,0,16.402-7.243,17.348-16.854C56.91,26.017,51.271,16.87,41.205,16.87" style="clip-path:url(#SVGID_4_);fill:#CC8F2D;"/><path d="M41.205,16.87c10.066,0,15.705,9.147,14.676,19.588    c-0.945,9.61-8.682,16.854-17.348,16.854H25.469c-8.666,0-16.403-7.243-17.348-16.854C7.09,26.017,12.728,16.87,22.795,16.87    c2.709,0,6.896,1.501,9.205,2.72C34.31,18.371,38.498,16.87,41.205,16.87 M41.205,14.87c-2.895,0-6.818,1.381-9.205,2.49    c-2.387-1.109-6.311-2.49-9.205-2.49c-4.715,0-8.816,1.776-11.86,5.136C7.24,24.084,5.488,30.152,6.131,36.655    c1.029,10.461,9.523,18.656,19.338,18.656h13.064c9.814,0,18.309-8.195,19.338-18.657c0.642-6.503-1.111-12.571-4.807-16.649    C50.02,16.645,45.919,14.87,41.205,14.87" style="clip-path:url(#SVGID_4_);fill:#AA6432;"/></g></g><g><defs><rect height="64" id="SVGID_5_" width="64"/></defs><clipPath id="SVGID_6_"><use style="overflow:visible;" xlink:href="#SVGID_5_"/></clipPath><g style="clip-path:url(#SVGID_6_);"><defs><rect height="64" id="SVGID_7_" width="64"/></defs><clipPath id="SVGID_8_"><use style="overflow:visible;" xlink:href="#SVGID_7_"/></clipPath><g style="opacity:0.75;clip-path:url(#SVGID_8_);enable-background:new    ;"><g><defs><rect height="38" id="SVGID_9_" width="20" x="12" y="17"/></defs><clipPath id="SVGID_10_"><use style="overflow:visible;" xlink:href="#SVGID_9_"/></clipPath><g style="clip-path:url(#SVGID_10_);"><defs><rect height="36.828" id="SVGID_11_" width="18.248" x="12.912" y="17.617"/></defs><clipPath id="SVGID_12_"><use style="overflow:visible;" xlink:href="#SVGID_11_"/></clipPath><path d="M25.397,54.445c-6.768-3.927-12.485-13.605-12.485-21.135       c0-9.093,7.674-15.693,18.248-15.693v1c-9.994,0-17.248,6.18-17.248,14.693c0,7.218,5.489,16.5,11.987,20.27L25.397,54.445z" style="clip-path:url(#SVGID_12_);fill:#AA6432;"/></g></g></g></g></g><g><defs><rect height="64" id="SVGID_13_" width="64"/></defs><clipPath id="SVGID_14_"><use style="overflow:visible;" xlink:href="#SVGID_13_"/></clipPath><g style="clip-path:url(#SVGID_14_);"><defs><rect height="64" id="SVGID_15_" width="64"/></defs><clipPath id="SVGID_16_"><use style="overflow:visible;" xlink:href="#SVGID_15_"/></clipPath><g style="opacity:0.75;clip-path:url(#SVGID_16_);enable-background:new    ;"><g><defs><rect height="37" id="SVGID_17_" width="12" x="21" y="18"/></defs><clipPath id="SVGID_18_"><use style="overflow:visible;" xlink:href="#SVGID_17_"/></clipPath><g style="clip-path:url(#SVGID_18_);"><defs><rect height="36.081" id="SVGID_19_" width="11.368" x="21.246" y="18.504"/></defs><clipPath id="SVGID_20_"><use style="overflow:visible;" xlink:href="#SVGID_19_"/></clipPath><path d="M31.662,54.585c-6.838-4.595-10.416-13.571-10.416-20.063       c0-7.679,4.458-14.114,11.093-16.018l0.275,0.961c-6.201,1.779-10.368,7.829-10.368,15.057c0,6.075,3.496,14.881,9.975,19.233       L31.662,54.585z" style="clip-path:url(#SVGID_20_);fill:#AA6432;"/></g></g></g></g></g><g><defs><rect height="64" id="SVGID_21_" width="64"/></defs><clipPath id="SVGID_22_"><use style="overflow:visible;" xlink:href="#SVGID_21_"/></clipPath><g style="clip-path:url(#SVGID_22_);"><defs><rect height="64" id="SVGID_23_" width="64"/></defs><clipPath id="SVGID_24_"><use style="overflow:visible;" xlink:href="#SVGID_23_"/></clipPath><g style="opacity:0.75;clip-path:url(#SVGID_24_);enable-background:new    ;"><g><defs><rect height="38" id="SVGID_25_" width="22" x="32" y="17"/></defs><clipPath id="SVGID_26_"><use style="overflow:visible;" xlink:href="#SVGID_25_"/></clipPath><g style="clip-path:url(#SVGID_26_);"><defs><rect height="37.405" id="SVGID_27_" width="20.236" x="32.771" y="17.051"/></defs><clipPath id="SVGID_28_"><use style="overflow:visible;" xlink:href="#SVGID_27_"/></clipPath><path d="M39.205,54.456l-0.465-0.887       c8.308-4.354,13.268-11.927,13.268-20.259c0-5.252-1.842-9.625-5.187-12.311c-3.482-2.797-8.265-3.624-13.835-2.395       l-0.215-0.976c5.872-1.298,10.949-0.402,14.676,2.592c3.586,2.88,5.561,7.528,5.561,13.089       C53.008,42.021,47.848,49.925,39.205,54.456" style="clip-path:url(#SVGID_28_);fill:#AA6432;"/></g></g></g></g></g><g><defs><rect height="64" id="SVGID_29_" width="64"/></defs><clipPath id="SVGID_30_"><use style="overflow:visible;" xlink:href="#SVGID_29_"/></clipPath><g style="clip-path:url(#SVGID_30_);"><defs><rect height="64" id="SVGID_31_" width="64"/></defs><clipPath id="SVGID_32_"><use style="overflow:visible;" xlink:href="#SVGID_31_"/></clipPath><g style="opacity:0.75;clip-path:url(#SVGID_32_);enable-background:new    ;"><g><defs><rect height="37" id="SVGID_33_" width="16" x="31" y="18"/></defs><clipPath id="SVGID_34_"><use style="overflow:visible;" xlink:href="#SVGID_33_"/></clipPath><g style="clip-path:url(#SVGID_34_);"><defs><rect height="36.118" id="SVGID_35_" width="15.244" x="31.473" y="18.493"/></defs><clipPath id="SVGID_36_"><use style="overflow:visible;" xlink:href="#SVGID_35_"/></clipPath><path d="M32.654,54.61l-0.473-0.881c6.562-3.526,13.536-11.409,13.536-19.073       c0-10.355-7.747-13.97-14.246-15.18l0.184-0.984c9.852,1.835,15.062,7.425,15.062,16.164       C46.718,42.71,39.472,50.947,32.654,54.61" style="clip-path:url(#SVGID_36_);fill:#AA6432;"/></g></g></g></g></g><g><defs><rect height="64" id="SVGID_37_" width="64"/></defs><clipPath id="SVGID_38_"><use style="overflow:visible;" xlink:href="#SVGID_37_"/></clipPath><g style="clip-path:url(#SVGID_38_);"><defs><rect height="64" id="SVGID_39_" width="64"/></defs><clipPath id="SVGID_40_"><use style="overflow:visible;" xlink:href="#SVGID_39_"/></clipPath><g style="opacity:0.75;clip-path:url(#SVGID_40_);enable-background:new    ;"><g><defs><rect height="37" id="SVGID_41_" width="7" x="31" y="18"/></defs><clipPath id="SVGID_42_"><use style="overflow:visible;" xlink:href="#SVGID_41_"/></clipPath><g style="clip-path:url(#SVGID_42_);"><defs><rect height="35.899" id="SVGID_43_" width="5.847" x="31.329" y="18.543"/></defs><clipPath id="SVGID_44_"><use style="overflow:visible;" xlink:href="#SVGID_43_"/></clipPath><path d="M32.281,54.442l-0.84-0.545c2.295-3.537,4.735-11.483,4.735-19.241       c0-10.448-2.637-14.05-4.848-15.231l0.471-0.882c2.452,1.31,5.376,5.169,5.376,16.113       C37.177,42.606,34.653,50.784,32.281,54.442" style="clip-path:url(#SVGID_44_);fill:#AA6432;"/></g></g></g><path d="M29.91,18.243c0.883,0.305,1.842,0.444,2.83,0.381    c0.537-0.036,1.418-0.361,1.918-0.506c-0.055-0.708-0.576-4.64,2.699-5.803L35.738,9.83C29.545,12.318,29.5,16.179,29.91,18.243" style="clip-path:url(#SVGID_40_);fill:#8BA43C;"/><path d="M35.738,9.83l1.619,2.484c-3.275,1.163-2.754,5.095-2.699,5.803    c-0.5,0.145-1.381,0.47-1.918,0.507c-0.155,0.01-0.31,0.015-0.464,0.015c-0.824,0-1.622-0.14-2.366-0.396    C29.5,16.179,29.545,12.317,35.738,9.83 M35.737,7.83c-0.249,0-0.501,0.046-0.744,0.144c-7.383,2.965-7.583,7.951-7.045,10.658    c0.139,0.698,0.638,1.269,1.31,1.501c0.971,0.336,1.987,0.506,3.018,0.506c0.196,0,0.393-0.007,0.59-0.019    c0.656-0.045,1.385-0.277,1.971-0.464c0.14-0.045,0.27-0.086,0.378-0.118c0.91-0.264,1.511-1.13,1.438-2.075l-0.013-0.147    c-0.242-2.715,0.676-3.364,1.387-3.617c0.578-0.205,1.029-0.663,1.226-1.244s0.115-1.219-0.219-1.732l-1.619-2.485    C37.035,8.158,36.397,7.83,35.737,7.83" style="clip-path:url(#SVGID_40_);fill:#627935;"/></g></g></svg>